# xmcd
#
# Track frame offsets: 
#        150
#        17265
#        32028
#        52133
#        67710
#        83694
#        106561
#        126281
#        143473
#        163451
#        182532
#        199158
#
# Disc length: 2887 seconds
#
# Revision: 0
# Processed by: cddbd v1.5.2PL0 Copyright (c) Steve Scherf et al.
# Submitted via: ExactAudioCopy v0.99pb5
#
DISCID=920b450c
DTITLE=Big Head Todd and The Monsters - All The Love You Need
DYEAR=2008
DGENRE=Rock
TTITLE0=Her Own Kinda Woman
TTITLE1=Cruel Fate
TTITLE2=All the Love You Need
TTITLE3=Cashbox
TTITLE4=Fortune Teller
TTITLE5=Ever Since Ya Pulled Me Under
TTITLE6=How Easy
TTITLE7=Spanish Highway
TTITLE8=Blue Sky
TTITLE9=Under A Silvery Moon
TTITLE10=Beautiful Rain
TTITLE11=Sugar Buzz
EXTD=
EXTT0=
EXTT1=
EXTT2=
EXTT3=
EXTT4=
EXTT5=
EXTT6=
EXTT7=
EXTT8=
EXTT9=
EXTT10=
EXTT11=
PLAYORDER=
